<mxfile host="app.diagrams.net" modified="2023-11-17T12:51:59.654Z" agent="Mozilla/5.0 (Windows NT 10.0; Win64; x64) AppleWebKit/537.36 (KHTML, like Gecko) Chrome/119.0.0.0 Safari/537.36 Edg/119.0.0.0" etag="cZ8C2quvr4drilVC-i28" version="22.1.2" type="device">
  <diagram name="Page-1" id="nYLPawJ32buWMVCOd572">
    <mxGraphModel dx="956" dy="541" grid="1" gridSize="10" guides="1" tooltips="1" connect="1" arrows="1" fold="1" page="1" pageScale="1" pageWidth="850" pageHeight="1100" math="0" shadow="0">
      <root>
        <mxCell id="0" />
        <mxCell id="1" parent="0" />
        <mxCell id="lQ3q4biI_0sWXUfw5QoY-21" style="edgeStyle=orthogonalEdgeStyle;rounded=0;orthogonalLoop=1;jettySize=auto;html=1;entryX=0;entryY=0.5;entryDx=0;entryDy=0;entryPerimeter=0;startArrow=blockThin;startFill=1;dashed=1;dashPattern=8 8;" edge="1" parent="1" source="lQ3q4biI_0sWXUfw5QoY-1" target="lQ3q4biI_0sWXUfw5QoY-7">
          <mxGeometry relative="1" as="geometry">
            <mxPoint x="210" y="350" as="targetPoint" />
            <Array as="points">
              <mxPoint x="55" y="338" />
              <mxPoint x="165" y="338" />
            </Array>
          </mxGeometry>
        </mxCell>
        <mxCell id="lQ3q4biI_0sWXUfw5QoY-1" value="" style="points=[[0.13,0.225,0],[0.5,0,0],[0.87,0.225,0],[0.885,0.5,0],[0.985,0.99,0],[0.5,1,0],[0.015,0.99,0],[0.115,0.5,0]];verticalLabelPosition=bottom;sketch=0;html=1;verticalAlign=top;aspect=fixed;align=center;pointerEvents=1;shape=mxgraph.cisco19.laptop_video_client;fillColor=#005073;strokeColor=none;" vertex="1" parent="1">
          <mxGeometry x="30" y="240" width="50" height="42.5" as="geometry" />
        </mxCell>
        <mxCell id="lQ3q4biI_0sWXUfw5QoY-2" value="" style="points=[[0.13,0.225,0],[0.5,0,0],[0.87,0.225,0],[0.885,0.5,0],[0.985,0.99,0],[0.5,1,0],[0.015,0.99,0],[0.115,0.5,0]];verticalLabelPosition=bottom;sketch=0;html=1;verticalAlign=top;aspect=fixed;align=center;pointerEvents=1;shape=mxgraph.cisco19.laptop_video_client;fillColor=#005073;strokeColor=none;" vertex="1" parent="1">
          <mxGeometry x="500" y="240" width="50" height="42.5" as="geometry" />
        </mxCell>
        <mxCell id="lQ3q4biI_0sWXUfw5QoY-5" value="" style="image;aspect=fixed;html=1;points=[];align=center;fontSize=12;image=img/lib/azure2/compute/Azure_Spring_Cloud.svg;" vertex="1" parent="1">
          <mxGeometry x="250" y="155" width="50" height="50" as="geometry" />
        </mxCell>
        <mxCell id="lQ3q4biI_0sWXUfw5QoY-7" value="COTURN Server&lt;br&gt;" style="verticalLabelPosition=bottom;html=1;verticalAlign=top;align=center;strokeColor=none;fillColor=#00BEF2;shape=mxgraph.azure.server;" vertex="1" parent="1">
          <mxGeometry x="250" y="330" width="50" height="15" as="geometry" />
        </mxCell>
        <mxCell id="lQ3q4biI_0sWXUfw5QoY-8" style="edgeStyle=orthogonalEdgeStyle;rounded=0;orthogonalLoop=1;jettySize=auto;html=1;exitX=0.87;exitY=0.225;exitDx=0;exitDy=0;exitPerimeter=0;entryX=-0.053;entryY=0.527;entryDx=0;entryDy=0;entryPerimeter=0;" edge="1" parent="1" source="lQ3q4biI_0sWXUfw5QoY-1" target="lQ3q4biI_0sWXUfw5QoY-5">
          <mxGeometry relative="1" as="geometry">
            <Array as="points">
              <mxPoint x="74" y="181" />
            </Array>
          </mxGeometry>
        </mxCell>
        <mxCell id="lQ3q4biI_0sWXUfw5QoY-10" value="1a) Authentication&amp;nbsp;" style="text;html=1;strokeColor=none;fillColor=none;align=center;verticalAlign=middle;whiteSpace=wrap;rounded=0;" vertex="1" parent="1">
          <mxGeometry x="100" y="155" width="110" height="30" as="geometry" />
        </mxCell>
        <mxCell id="lQ3q4biI_0sWXUfw5QoY-11" style="edgeStyle=orthogonalEdgeStyle;rounded=0;orthogonalLoop=1;jettySize=auto;html=1;entryX=0.5;entryY=0;entryDx=0;entryDy=0;entryPerimeter=0;startArrow=classic;startFill=1;" edge="1" parent="1" source="lQ3q4biI_0sWXUfw5QoY-5" target="lQ3q4biI_0sWXUfw5QoY-7">
          <mxGeometry relative="1" as="geometry" />
        </mxCell>
        <mxCell id="lQ3q4biI_0sWXUfw5QoY-13" value="0) Connection Setup" style="text;html=1;strokeColor=none;fillColor=none;align=center;verticalAlign=middle;whiteSpace=wrap;rounded=0;" vertex="1" parent="1">
          <mxGeometry x="280" y="230" width="90" height="30" as="geometry" />
        </mxCell>
        <mxCell id="lQ3q4biI_0sWXUfw5QoY-15" style="edgeStyle=orthogonalEdgeStyle;rounded=0;orthogonalLoop=1;jettySize=auto;html=1;entryX=0.5;entryY=0;entryDx=0;entryDy=0;entryPerimeter=0;startArrow=block;startFill=1;endArrow=none;endFill=0;" edge="1" parent="1" source="lQ3q4biI_0sWXUfw5QoY-5" target="lQ3q4biI_0sWXUfw5QoY-2">
          <mxGeometry relative="1" as="geometry" />
        </mxCell>
        <mxCell id="lQ3q4biI_0sWXUfw5QoY-17" value="1a) Authentication&amp;nbsp;" style="text;html=1;strokeColor=none;fillColor=none;align=center;verticalAlign=middle;whiteSpace=wrap;rounded=0;" vertex="1" parent="1">
          <mxGeometry x="360" y="155" width="110" height="30" as="geometry" />
        </mxCell>
        <mxCell id="lQ3q4biI_0sWXUfw5QoY-28" style="edgeStyle=orthogonalEdgeStyle;rounded=0;orthogonalLoop=1;jettySize=auto;html=1;exitX=0.5;exitY=0;exitDx=0;exitDy=0;startArrow=classic;startFill=1;" edge="1" parent="1" source="lQ3q4biI_0sWXUfw5QoY-18" target="lQ3q4biI_0sWXUfw5QoY-27">
          <mxGeometry relative="1" as="geometry" />
        </mxCell>
        <mxCell id="lQ3q4biI_0sWXUfw5QoY-18" value="WebRTC Server" style="text;html=1;strokeColor=none;fillColor=none;align=center;verticalAlign=middle;whiteSpace=wrap;rounded=0;" vertex="1" parent="1">
          <mxGeometry x="225" y="125" width="100" height="30" as="geometry" />
        </mxCell>
        <mxCell id="lQ3q4biI_0sWXUfw5QoY-19" value="2) Peers Authentication" style="text;html=1;strokeColor=none;fillColor=none;align=center;verticalAlign=middle;whiteSpace=wrap;rounded=0;" vertex="1" parent="1">
          <mxGeometry x="292.5" y="270" width="65" height="20" as="geometry" />
        </mxCell>
        <mxCell id="lQ3q4biI_0sWXUfw5QoY-20" value="3) Peer-to-Peer&lt;br&gt;Connection" style="text;html=1;strokeColor=none;fillColor=none;align=center;verticalAlign=middle;whiteSpace=wrap;rounded=0;" vertex="1" parent="1">
          <mxGeometry x="280" y="310" width="100" height="5" as="geometry" />
        </mxCell>
        <mxCell id="lQ3q4biI_0sWXUfw5QoY-22" style="edgeStyle=orthogonalEdgeStyle;rounded=0;orthogonalLoop=1;jettySize=auto;html=1;exitX=0.5;exitY=1;exitDx=0;exitDy=0;exitPerimeter=0;entryX=1;entryY=0.5;entryDx=0;entryDy=0;entryPerimeter=0;dashed=1;dashPattern=8 8;" edge="1" parent="1" source="lQ3q4biI_0sWXUfw5QoY-2" target="lQ3q4biI_0sWXUfw5QoY-7">
          <mxGeometry relative="1" as="geometry" />
        </mxCell>
        <mxCell id="lQ3q4biI_0sWXUfw5QoY-23" value="4)&amp;nbsp; WebRTC Channel" style="text;html=1;strokeColor=none;fillColor=none;align=center;verticalAlign=middle;whiteSpace=wrap;rounded=0;" vertex="1" parent="1">
          <mxGeometry x="70" y="345" width="140" height="20" as="geometry" />
        </mxCell>
        <mxCell id="lQ3q4biI_0sWXUfw5QoY-24" value="4)&amp;nbsp; WebRTC Channel" style="text;html=1;strokeColor=none;fillColor=none;align=center;verticalAlign=middle;whiteSpace=wrap;rounded=0;" vertex="1" parent="1">
          <mxGeometry x="360" y="345" width="140" height="20" as="geometry" />
        </mxCell>
        <mxCell id="lQ3q4biI_0sWXUfw5QoY-26" value="TURN Users Info Database" style="image;aspect=fixed;html=1;points=[];align=center;fontSize=12;image=img/lib/azure2/databases/Azure_Database_MySQL_Server.svg;" vertex="1" parent="1">
          <mxGeometry x="262.5" y="430" width="37.5" height="50" as="geometry" />
        </mxCell>
        <mxCell id="lQ3q4biI_0sWXUfw5QoY-27" value="" style="shape=image;verticalLabelPosition=bottom;labelBackgroundColor=default;verticalAlign=top;aspect=fixed;imageAspect=0;image=data:image/png,iVBORw0KGgoAAAANSUhEUgAAASwAAAEsCAMAAABOo35HAAAA51BMVEVMaXF3d3erq6u9vr5NTU1ra2uHh4eIh4i1tLTFxcV9fX6VlZXNzc1PTk6WlZXAwMCVlJSHh4diYmJTU1OXl5dvb2+BgIHCwsKhoKGRkZF1dXWampqenp66uru1tbVra2tjY2O2tra4uLisrKyJiYnLy8vLy8t/f3+Mi4tQUFBRUVF9fX1ycnJOTk4HtuKSkZFNTU2op6eloqOvr6+ysLGem5yioKEAias7wea5ubmfnJ2amJmOjI2YlZZHSEgQs9xXVlYgrtKAsr9Utc4TmryftbwMg6ApvOQvjaQ+VFs2Y29Xna9AdYP6XVaGAAAALXRSTlMA/f79/P7+Av7+/hj9Xoc1/jX9Rlr9C1/49Hf4uuvP8JGkgO6qu/Lw4N6ywdaSjntXAAAACXBIWXMAAAPoAAAD6AG1e1JrAAAfVUlEQVR4nO2dCV8aSbfGC1CKxREwiBBAoxg1MUgjwrws4hYzMTPf//Pc3zm1dK1Nk+HeN+HWY8YFGrT/85zTp5auIiQoKCgoKCgoKCgoKCgoKCgoKCgoKCgoKCgoKCgoKCgoKCgoKCgoKCgoKCgoKCgoKCgoKCgoKCgoKCgoKCgoKCgoKOh3Et2Y/ttn8luJkm1X449N6d2206LkQ39TeixvNy1K3vV3NqX+522H9bm/syFj7ez0tzoQKfmjv9OPNqP+TvRpi1kR0vjU34n6UbQJZ0X9nf4f22styO47G0LV70fRTvRpa3M8JeUdMNaGWAGt/ofthfUZg3BjtCDL17aTFpYN0cZgYerb4vLhc7TDDbEpXP0tLR+wbIjwDDdHq7/T38bygZLGp2iDGYvTirayfMCyIdowLIjDLSwfoGwATtGGWW1ljmeNwmjzztrCHI9lgwUqss99fVpbaC36KbIaOpHVpP4ZWlvXRGS9DQaKKI2zrFa3A+lO/1ODbI0oKbPehr7hqpWwbKCRdRRYa4uaiKy3QT/JiNtED0PjGGQVLRWh04w3inaina0pHyipsQpLPUmsI6K3H7HezGMYuyj6R9Hb0hHN0RbleGdvQwT//fgW68+vjJaOod9f/vMfRX+/WS0mALo15QMrG+xM04/evv0Z6+vN96UMvRhW9Pb08JdC6x+wloGUlQ/bIYrZ3Ujv/X60/KHCerh5+oEgBC0Mwf7y+83NgwLr5c1uCCCtrSgfZG+Dkbr7urGebm5uvr8pVzsehD+ebm40a31fuuPwU+P3pwVlg9XbELFkpAXhzc3Nww8AIaIMP7+xJ1RrMf+ZSX4n2oLywdnbEAGuH6axbm4gx/Nj2eflPw8IS7XW35DarBpjJ/r9e5hZX7J9bn0zu6MeMH0rOYsZS7cWy/H6W25HE1H0NtitwB96dmd6gvQtK9T+8jt/QrPWy5ujno1+//KBNwodenMYC3L8UvULZHePtWxBD/MvpJ+g1fi0dOuHwupPyQrKB0Xf4yf08sHzpn+Q31iUvC959M3K7ozJ3+pB6hNajs+UMi5d7v8yqq/PqpbL5XJF/aNYzOWKf39zBeHNzdMrvCKXy00LhcL0ReQyMxBfC26NUNlhkm5Bk9SazWZjptkqwUHz+bw6GAwG1XWvzZScTgtTU4VpIffsyu5A5HlaKMARd3jWrz5rvbxmR16tYtVs3jZTa9xuw79xm2k2a87Gbf1D1X37vjoYtAatamddY1WmbuW+e4z18sqB3jE9+6z17Gc1UsC4PsBXaa01Az9xY0l/yW/nqu75V/DVAqxVX89a9NjD6tlvLLCVZHX3qgSiYa0UrJzGmqwRhjMBZ67iQjL39/gZvyrA7gdci8HVOu0vSs48xnr97snuLznNV2Ctp3WtpQbhrQGKG2sFrZn4Ar4STppLZMhIwpFf7w1Wg8H+OtYqdx0Zazqd5rTsrhjr6ZW9IGY1Kqg5Po21zIQFgBRyGIIc1iyJ10z6Sg1DRKZLOgtoCVaIq5U+x8vsbgLLvfrKhhd2eMwKAtGb49cPwthXKcIQHcW8peUsZiE3roGu87SwErL7396yoVDQg/Du7q7gy/EvzkC0+WjOEr5KhAWmAl9BMcCJmRnLISUGRRwO0ud4M7vnVmf3QsFkBdZaI8fLIMy60tZtDGuVt/hlEGlZsFKwYriu0rGi5MgVglMoG/70lQ1QVupBmFw+3K1KWAoulrskqhUZHvmgt/SkNWfp3WGte5PVYLBoDd6ns1ZDGAvM4gvCP9UgZPXoaGTCek2f44eJxlJRrQhElth5Wa45K1UMSrXSDNF5y4ZcQnYHY6FZrEBMWT6oYLJJ6X2Vs1j8OZ3lZGXndpG1UpUP5a47CnNJZUPhbsQjS8/xKa2VdXESpYOW3pNYzSYyVTmc5UHl9hXgWl0+uBuFK401GglYHNdonfJBZZTViN3arBKMhS3muNWssJpzWJa7/KwG5/8LjcKnV2YrI2evyvGqtcwAtMpTXf7UroQghyV5qVnKZlWVHxLXIkX5cOwx1rO3bGAVgwfW68vNykDU85VCil8HU8BiVbtKitHyNJ2TfcWchU3EZGMduVklNApfRy5WEtjqJqLlp6zWyjGj0EOLY1FpaTnLcJbeHgRHyX8xsRU5voHZ3WGsvz3Genq+88MapcrxXmNJXgYrmxamdt1VZtJa4SsGSUO1onxI6G345jNWgecrJyzg5c3x3FpWxaBXWpDiLbkqhri+Wg3L9hVLWzEuZJXURKSk7C7dkxqFd2ggP6zRnb+H2eUru3q4XQnLEYIaLKzeLVpallI8JWktksoHKBumLlz+7P5SAFKJsJJ6mJ0VlgTGyyw7Cg1aDIkrDKW17BhU6EhPaddDNFdn7bKh4CsbHp5YdvfmLCZf+QD5zsxXRtUAxnKw0mDNPKhia801WNhTOlhgLbXKXAnlg7svOWmQooDpKtlZI08T8a+Hp1crTxmlg103WLB4y9kOQsVZ+nWQVe0LHZdiLqN8oN7eBldnQ0LZcMeL9SRY2ZG7fHi4eXjJ3rqcpab42xWw2DiXC5WatDRjIY4FU4K5FknlA2sUWrgK/t6GV6jdWRQmOWs0clnrLyw8LDfpP6wyVoKt1DBUet5FXuewHLi0rLVwlg9QNhTWLxvueJk1uksYDnTmeOD38JI4UrjSWKJk8EnAilkpJGIlmstRPsjsXlinbLgTLeZkZ2U1az1IY0HWS4LlYyVw8c4rZ9lgwbrXUGmwTFz8MHx04SgfeG+Do2cmMbvfAaXVYeiwFn+nl9efgTW5VcureJheF0/w0lXGtc6QeS30lw+U1JV5B5JZwd/b8ADGYldCXmklxaFVPvwlkScFomEm/Se17cfazOa1kA9ZmAHohuXAxVK8XT7Q48JdAf6pSiobntBYMmclG8sqH/5SghlcwgfmlQ9GhJ02Hw1UdHsbs5FQbGthHGK5bhVRDlg2L+ioGZjlAyVnnsktetnw8PAgJvS9QEMHrcXctcJZRvmgDPu8JCQmZ3Sx0Zt7JlkReA4dz8ae3lAnLFc02uUDGIv5Cr7GDlMvhV+1HhZt4Guls7KvXxVp11QBa+hi5UzbWA0wVe/vq9V7QzpAh6sSYBm8Fva4GCVHCCiGxL+7myrXwie9YcdTFg/FBE7w352/j0dAspo18UCp3asHsCxIbjlRJcFScAGr1sIaFju2MpZpra9GD4vkxJyVHIX+Yo1PURtOhre3+EkYzduXAPzScQKeg5+AJXlhijebPJRUNGPFDout9eDqYUkVhtlswVusPXM0dgefp4JCVhiFqZzljsEUtASuRd6+GpJTx+UQHhAp/qvVwyIwrYAFlvP38WiZCswVJyxlgodZac5TO4vXlj8Bi+Fa5F2jPOWuxYl9Zif6ld0woVmLl1hJNWkWfDXM+oeGYlBKCELRIGpKu36azUQUrvaWmM33U7BA+byjAxCqB/UyKIjdjV7xTJ+U6jvO8WpR6gAFqIbD26wvuz/wILQl0roMRO4zfjVMaaz7e6+vUsLK591dy41j5TIoUOHUoW+xHR608mFVTSqqc28fDzeTktYh00+UhCXK83i+lRKF1XTG8jRl0qDKXzkHLUT5EAehSN6QnR/i6tu0Fv5jAaflqWwWUpBpLG3g/1miUiarwYdRV3JnyTJdTUr8i8kNHqmCsXibJT2svAbLO5sGmzyM2J1ac75+i/OMUT4wUkYUsuiT0rK7sx41/aU1Xlh+j8NwjShk3Xweb7kg5S1jeVCx8kGLQGkt30gpWIs7S/EUopLT9rKrygZ7yFnpg8JMz4rSsehnmEPVrl0Qq2YZX0UpQLSOKva901O6r+yywSofNFuZ8ztujAEaZi09UcnOYvgmXdkgGz2T29nBY6xdMZl2Np7klccfS/OYzy48kFfwqe8gjldo4dMlBZN6/IHCKmluqSgfzFlp3umh/3kWs2aUlC5nCrGM5Zkv+PCk1KEKtskws5QLQkTRsnTLi4jZ+BF+Zg9Hy0fBqjovmQ9k4AHQkn/A0zIU7/Hp5WPsukNxPL7mcCBYucoGo/NBThhSrPWSMAjPYWVZopIzFBxB6CkbtAJrWNVv3nycsyCcTzLa/XfLwzGnM3jEFywzwmsL18o4y0PZ/c6PZ1CAi3G7KIYisEqe7NA4dqECaz0pgWhYi41JZ93TQv1DQ0am4j9ObneX6v2b/eUh1BGz8QwhqisFLVijZ3wIL4CTXHBj6e8gj8+zQLzHpyWUxWJwYPzGXWjkeMuG2Fp13qVn0XrxzdNm8ztiU8Xmuk1RNnBMyu0TC7Yiibgjux9FA5zRN4Fz5I/g/f3LA7TWHHyE577cBWtV53mGwlg/p788QGtV0UcSymKxKKmrc+BzJRaEKybhUnLqIAXOeU2a35GFcWMtUwlqacsGeR2cwf9m9Q7q/vIAro6TvLo8C4uj/Lx6X53jC9gCOZDj8QHHwh3AAEdS2S9AKHlpLPECZq0DhHW9Yi4bJTWnse7u/PM7sBed9ZAr9mLTsVc2CnFkUHKbzW9L4lT43w6OyYO1MFaUlSOi/vIRfSROFU5yXoV071oiCI8HVvgL+McBWCuj/0b4bplZkd1ljnflLOMWAD3HIxveNc6AyYD0Dw25jAWdeo/sxFRPLB9n8wk/R+XhCFP6/JH7CLGW5tUqPuBcs2qZqS4GjzHc/jIzWLB0r75z1I8eV5QNQuWex1rPXmsJWHykIc7u/rLh1WoVAiu84umsGIOhDRFwPQ7wBSLM+tFjdQLp3roUsvCKHhdj/AV8sRx4oMquBmqEYzpbrDYWNhF91nrxlg/D4ZA5Cwf0BK6k7B4PcykdWOPJwLGgG/zLsCA0zbI8yMiFSpjXDg55iNm0MO6Up/F/w8GudTS+2c5uulss6LE3EG88OV7A4pEoLnETb3bPckZK+1le8fR139hJLrW8EscLrmGmrIHDHnAuxc4cw58WTuxH+AbGqhy4hmqq9fUoqbjDcJQwPZTnrBgWfE1oFFqDzVihwxXPXqBfMYJlAHN1vKQFVcX1zkjmzhX4Ui/L4S4fQP45fCLDK9aa3CY0Cp2seNngWK6L/eeEaKQbhYrLWfYqX/bxay344i4fRsl3EMawpLe0Lj+9bDDmx7A+5DErG9zrUroW97Qf9x25zvFsCbTU671A+eDUKMFaJqzJ0N8oNKYxYLoaj2f3cMVzr+Lp9ov9eIKzUh+/7hqXjV7cjaB9PHtvARiasG49jcIbPidLZYWdMHjR39Q2GT8tTFjrrJBNSR3QcME37AdjopWe49VZG0nG4rP91EoUu0MnA2zy/bf1M1u3HHMrif70Ee8tfvaWD8o8T2DQTGgUKrT4Dc1QY0GT7lfQuqv6U1JBLylRCIK+BW/vw7M2J2iYWDbErEQX+xwbyr+E1l7Ni5JTGYZSQzhDf45nS+UwJZUNohhlk6zksMRjtPNrKFp/nThoIuo9zFnmrqTyQWro720YSvTKFXRyq3eD/jf1uPYKhJS8P0TtWvqqnLu2aKt6kM9Y2kFMB/Dp5I9fRj+zpB71rsz25AxEfdE1ZV1AFe735TauzCaWCnZoqSxRpwSitpyfsuKk1tvww1lGYevi19FPL0LtKkTeXNaCNUjlIbCq9zdHPQqLKDre8bdfTRKXN7eX941wAVw7x7/8kN0FrLkqVsnVsjsuz7mVy5y7Fs7vs1Vdv1rWYp4RsMAv3Fpadrc6j1jf0RYsoA87OZkLUUcea+GK3HK1YDZWhTleNdZXWNLVWlF3S3bv41uLGkboR/3+m5nj/zFGVOSqwipVyO563x4Lwm3Z9MPetDbCT0b5ALsIaB2WGIo/vhllg6ejbSvWg/fsaxipSycza+Ha5XqvGljrn7hsgAX2Hf2dkLF+/+yuLUZtsIoAxHflhgkIQsOAzoNcQw6/f9mgbapm0IrYxQ4m8sAa8G/R8s3eJoabCJ9n/95cXcbbtfEOJR9MWH1l6Enkp/gnI1zVFzg3KdqmbfvYRpD6GUYmFecIlGuQyX7ptmT3hPKBS50s5RhTiUPRfcwWbjUqcnxkhJecosM3AXGOVCmpzBpH2a7srm1lEfU3rm3cOnPDG27rY5m//bYonu13+hvGtV1lQ2Lvw79XhDNVtg0W7P2x6UCMtq5sSN6M7t+IXQk/kW2Uq4n474Q11naVDUKUvMN9tzeorehLTsrx0abyFttNbXsaha5Nf/ubYrWlZYO+L2S0MVrbsQPkih1Ho43B2saywWwiRhtita3ZnYmSz0bH1r/QtpYN2v7bOxvSlhuLiCbiRrRFfck+0Xeb0vaz2qT+H7Ci/80pUEFBQUFBQUFBQUFBQRvQv26O0FQHiaN+pvmjvDj51b7mlbPh9Ys2yCj73Gg0+HdrvZjKF7PvNvpHpVWjwlTW3oE/WKlU4MeKV/HrK+bU9or+xvBXletnp8e9Xu+4c3qEbyyOLVcqlVqtVvNNj2cv3u90rlpXV53zfTjQc5pleB/nWzX4M/qZ8gdrtdpKVJQc7TF91FjxBy/2Pio/4SMXuWKxWMzlctNcLveRknI3x3RqvC/s8QBiqzNSQuqnPX6vLN4FfHwUn/FpttdsNpu3npUcKSG181a8m1C1erVf9uA6z+cvS5eXJXNhGUreZ5iUETn54OHJ4eqBOgbr4gKomKyKxWLxI3TaVfBbLo4Gtr0oTI8pJWdiz+kj9beVu3BH7Gg0OuZnWzlW7ipmK0j1jsQJnw6buBmDb9nLWgc4tVrKUpqtfcfIGiU1YAW6NLobXbAoecdQHZ7srlpnLIalOouSyoWAdVGGZFHZK+4Vi3vFi2KuWJyipXI53FjlmMKigYxW7rihLekJGo3uKoTCH3em3Xvd5CtudfgZnU7wjnwnLErIPreUAmswqF65dnw5z+eRVcm0lgMWJbXMYebw8PDkZPdLikFNOwwpKTNWexfFC3am6Kw9zVg5AISwKDkS1jqL/4oKhOBdoZc9xXcoq7bKZrM9sfpdD34DIR12Q74LFiUUbWXBai0W5uGUlIWxSiXDKjYsSmon4kbkL+n2kD7au1CdFbPau9jDM2Gw0FWCFaSpboE7i5CPnFY3Tp24wnVh1Othaikfa7f0s6TFFgrM4gn7YVHS6NwLSDwO+Wd7PUNK9iWrUkl/M7gF/ATvAOewKClLViephghMZ1HS+CiT+RFPzSJn5WRiz+VyRcADsCipCGuBjeIFru+y2RGarRGzEjfix0vfZeH/SIdvIOMKw848NlS12mrBmsAClrm2b+NKgXVtnOn7XQaHwaKk/EWySjfRFWFdqGH4kf0oWRFKKsxVgKubg5w17XZzuW63y5wldpScTnMsqNjS6aNsdsTS2KlCadQ7Pj097smFOofH5SRYlOxLVtXWfr1WLtfqLCxx+ceFepqU1BVWpZKGAGDt7p6cnDBYlDQkq93UK2cZsMBXF/jAmQztCrdVt2xJ281umvsYr6qL69nU4fpwlO0JW/VOK2X4S8uVU+A1vB32MAB8sCipjyUrqBbiiyMaK5/XNzO+1mCd27B2dxksSmjMKu0kDJazYlin/KeLPVk2cVhQR3jf5GzaVcoHKBuQFb5HuYdb8gGtU6UeLJ8ORRAKWI6rYUMGYavOy3hsmOxXF/n8Ir9Q1/eFukFlpVcPkLMYmw/4PteSVbql/kxYlJwpxahQHIYfvfefNnAHztx02oUr8GmBVZ+jCvxZZxiCw2Evexa37+Dr2XA45HQ8sBRjVfV4I/tsxVpc4Fc+eq7D0qoHTPBxzvog1/pIP2tMhQWsiiLdq7+lIpxFk3buLoC7cmeEVFgIgrHAZj0gBf/OtOYzpaSeFXUsuxq27TDs8KWkq5bnzsFZ8E8QsYxVKqkxqsP6sHvCfjj8kL59qDlLXBiLex+VEo1yWDk/LLEnfKELOR5rqlF2xMqGOmzlC/lKaw4xQfuQw5rN2u32zLza19o8YXXsioonrfy1Ujfw8HvvqB5UWCIiT052r9doS6uwBKuLPSjclUOEs44bvlFmubFkd3p6xkKQlQ2UnPJtV3l2cqsDqOY2LFG6a0EonsOUJTd+oaR8JRP7NYOWudZhsXV2PvBUj8XoOrMRFVjYILwAKFi4m7ByxeJx0vvwnSVFuhJlQ+OYFaFYytuvErDG7TnsZ2wGW0cay1aNO4vXWpS8Fw2dGqnDF6jWY8gKrHcxq7Xmq8SwLi72LhCVwYpIZ+W6Z4bUhM/Kh8JdtsfWKRuxfITXwmx2yH/0qDNuj+fz9tyqMUXV4CJ9hb6S10N6HRejjUvGKnNuwIJAPDlcr3DXYHFWsl/BOC2KsHJxqzBW2dgNtwD7y/Di81Ss94YJKzkKSWcMxrJglVsLbOHY6Z23mREXAoGCVElU2A4sZTJx9cBXvFJXpjpc8w413jaMSRWLxTMXrGIRa3dNSluQle18TzVRNuApMFhZyPbJsBzOqlVbi8Wi1ao6OuYgn6OzFrizFyXncQOakvIlbzXL6kEsD6bSWnvxuiOWpxSx9rMJi5HCxg7DNtWcxZazFrB6rGyIYQ1TwbrXYFFSq0LfwmLRcsJ6z3MWwKKkJsoGwEPJOYf1RaQKF6z1w1A2/KT04pMCLGcUarCg/I+dxdkwWHA1TAGrbcAiEtbAD2vBnEXJvlq2Q08Vl3hLF6zdL2RdZ1mwitqVi7KcxcykfehhCMtZS1g8lAWs7DC7CtZ83G7ZOQu7rVwbO7MwxDg8x7qB949m3vPnrzmsuAxjsE60rJW6qRPDypm81BxPsYsm7pvxOguWs+awRKcpJRWGashyWDKsqnU1FLCc3c2Y4Nn+AJTwOhSKBRgAasiuPlE9eJY0XCfHAyxeRalSq1KKYQikukeGzN9T7jFY0NsgH8KKFBs7ybBgMwqzbQidMa3FwrXBOimL0gGTFNYNmKSEBCz+Wuh1iGnF1cMaVSnCyuFHsXhakbneGOspopF8vQ7xocfMWiPZjiH0mFXwtx3H36QVpe1q1chZlOzz/uOWFcRQKjBhlxZUoRmP2P947PwTcfhe1KUHB2vcfcWcxWh9hGxv1w+UVPb4wJe3uaPB6vG6gb34DEg5h7moXpS2LWdRUsdBnYW9rzP2XckeLUquS6JWsMXyEvZn8awFrUOG6uDgIP0tRQIWsMLeFUlLOd8Kz1isxz2ds+IXD5vNyWTSnDStsanavgKrXbXDEDO8sBZ1Fw5Yk9a8tpLVA+/8A1rYeL7ePUFWB+nrh9hZXXxN46NVP1BSyXWnXTk8sRYsyDsTgDVpTjo4JiYehi6FuTBMZwxRaOcs3pJuLYwN1nF8MF+SO6F9SGCVYZc82VN6CI1nGK1grA4OUt8owxN8LleE/iwcMzTrBwqwcLDmeFUydMCipH6LsIAW9NlQyid21Nvz9pjTUpylx7m01uAcT5FxpqR2xWx1iX3Hsl536YRVUwIW7+2j5J2AdZC2foivhmJ0R6StnKgfABaymib0OnhhAQlmLYjEuny4Bmaat8d1dghkLIRl/nn7VcDVWrTyV0plWs/nL/kIIRjrfVIUHu4eQrPGgAV2lLRS1g8mrDht5XK8fpCwCl17Yoje0UyP+VYFahiSWlPSuu3s1yu1Sn2/08ZNMtucFod1vx9P0+BTOCj00rRal5id2GyPch1y+yWrQsEVjS8c1rX+8hqWD3yk0IQFyxsKWCl7tSxYMm1hZBINVmFqSp/fALCw0tKcRUmdw5pMmrMZMJtAvyijNR7jUBiDZege+kfLLdHbDle+8/PzawSXL5Uy2M8n64ZDqD91QWF6yLsXLFhq2vqwDqyLGJYYn4DCCusHHESFeSBsUoymqQWLbehg9B7uT/CKOGm2x21cCr495qzmwlkwdlrFkFPUEakc6cTMeARmMtDDAHUDK7KurYx3yWCxAR0G61A6S01bqfof4hz10WhbY7XA5zoALGRTKKibmk/dsHrNppkE9tFPzTbbaxX3hVZZkc7cwarFm8i1FiSoEsPFviCry8w1Jv2aKN7tWUbnHBaWB/xqGNtIpq3HdPWDAxamrVwXOz6hjceG55GU4AUuY04zYWV72V6zPbYyZr05aTabuNEx28GiDajmbX4gwlJnFAEq1vmCnet5w12iM4b1xvBWoeyNiU+klsmw0HtPGjh8b8bc54OT9PVD3EWjtmUaXSgWptMuzF4QsBRJe91ZsIbD5mRmOYuSWudW23Ecc9a++P/ZuResWF3F8xTCAiD7MSjhq9IXGHXV+xvM86XkmjcCv6CzzASFaevT4+Onx8fHFIU8wsrZrUFBZwo0OCzhJ2Ex6EbWm8f0ONucTSbjidXFABP/OmJze8hb8/m4U5NNno6Y7SE8FXfrsRfXsIuhhMQQzvV7dgWT/Q0lZXAi/q110WJ+R8h7O5tT8k7uj7w6bQGsbrfbvbhQh/UoOepyQdVe6XrUM4YhaAcmOzbbTbuzDg6r7XfamOBnk3ZnP0ZFyHm1ddVCXSkSsPDAcv2cR2Pp8vq8LqdY0utLVMl5RWt8OWH6QMgfB/idFoaUfHj8hHr8vAIVHs6neBgBL6d+UPUHS8bf19Dmi9i4SLlWB7FJsNR6nSFlKiEc26jhq2v4W6n5WrcvxLONpDNtwFG/2NrYVHMh/T988W8qumqCPrQd+Xe+F9N13lJ51n3gL3nPQFBQUFBQUFBQUFBQUFBQUFBQUFBQUFBQUFBQUFBQUFBQUFBQUFBQUFBQUFBQUFBQUFBQUFBQUFBQUFBQUFBQUFBQUBD5Cf0P9Gr5/8Q4okgAAAAASUVORK5CYII=;" vertex="1" parent="1">
          <mxGeometry x="240" y="10" width="70" height="70" as="geometry" />
        </mxCell>
        <mxCell id="lQ3q4biI_0sWXUfw5QoY-29" value="1b) Keycloak Authentication" style="text;html=1;strokeColor=none;fillColor=none;align=center;verticalAlign=middle;whiteSpace=wrap;rounded=0;" vertex="1" parent="1">
          <mxGeometry x="256.25" y="80" width="200" height="30" as="geometry" />
        </mxCell>
        <mxCell id="lQ3q4biI_0sWXUfw5QoY-30" style="edgeStyle=orthogonalEdgeStyle;rounded=0;orthogonalLoop=1;jettySize=auto;html=1;entryX=0.625;entryY=0.945;entryDx=0;entryDy=0;entryPerimeter=0;startArrow=classic;startFill=1;" edge="1" parent="1" source="lQ3q4biI_0sWXUfw5QoY-26" target="lQ3q4biI_0sWXUfw5QoY-7">
          <mxGeometry relative="1" as="geometry" />
        </mxCell>
      </root>
    </mxGraphModel>
  </diagram>
</mxfile>
